<svg width="75" height="78" viewBox="0 11 75 67" fill="none" xmlns="http://www.w3.org/2000/svg">
<g clip-path="url(#clip0_5_694)">
<g clip-path="url(#clip1_5_694)">
<path opacity="0.3" d="M73.5 38H1.5C-0.709139 38 -2.5 39.7909 -2.5 42V74C-2.5 76.2091 -0.709139 78 1.5 78H73.5C75.7091 78 77.5 76.2091 77.5 74V42C77.5 39.7909 75.7091 38 73.5 38Z" fill="#AFAFAF"/>
<path d="M5.78906 39.7366C5.78906 34.2001 10.2772 29.7119 15.8137 29.7119H58.2559C63.7924 29.7119 68.2806 34.2001 68.2806 39.7366V66.3203C68.2806 68.5349 66.4853 70.3302 64.2707 70.3302H9.79894C7.58434 70.3302 5.78906 68.5349 5.78906 66.3203V39.7366Z" fill="#9A9A9A"/>
<path d="M3.62207 25.2274C3.62207 19.6909 8.11032 15.2027 13.6468 15.2027H60.7629C66.2994 15.2027 70.7877 19.6909 70.7877 25.2274V55.051H3.62207V25.2274Z" fill="#9A9A9A"/>
<path d="M74.4183 42.7716H0.609375V54.3H74.4183V42.7716Z" fill="#D8D8D8"/>
<path d="M64.521 25.477H72.4175C73.5248 25.477 74.4224 26.3746 74.4224 27.4819V45.777H64.521V25.477Z" fill="#D8D8D8"/>
<path d="M0.609375 27.4819C0.609375 26.3746 1.50701 25.477 2.61432 25.477H9.00702C10.1143 25.477 11.012 26.3746 11.012 27.4819V43.7721C11.012 44.8794 10.1143 45.777 9.00702 45.777H2.61432C1.50701 45.777 0.609375 44.8794 0.609375 43.7721V27.4819Z" fill="#D8D8D8"/>
<path d="M3.62207 14.0049C3.62207 12.8976 4.51971 12 5.62701 12H16.1529C17.2602 12 18.1579 12.8976 18.1579 14.0049V34.5027H3.62207V14.0049Z" fill="#D8D8D8"/>
<path d="M56.2524 14.0049C56.2524 12.8976 57.1501 12 58.2574 12H68.7833C69.8906 12 70.7883 12.8976 70.7883 14.0049V34.5027H56.2524V14.0049Z" fill="#D8D8D8"/>
<path d="M3.75391 24.1446L18.102 20.5723V33.2222L3.75391 33.0464V24.1446Z" fill="#EDEDED"/>
<path d="M3.62207 31.725H18.1579V46.2197H3.62207V31.725Z" fill="#BFBFBF"/>
<path d="M3.62207 52.5436C3.62207 51.4363 4.51971 50.5386 5.62701 50.5386H16.1529C17.2602 50.5386 18.1579 51.4363 18.1579 52.5436V70.3903C18.1579 71.4976 17.2602 72.3953 16.1529 72.3953H5.62701C4.51971 72.3953 3.62207 71.4976 3.62207 70.3903V52.5436Z" fill="#BFBFBF"/>
<path d="M54.9346 52.5436C54.9346 51.4363 55.8323 50.5386 56.9396 50.5386H67.4655C68.5728 50.5386 69.4705 51.4363 69.4705 52.5436V70.3903C69.4705 71.4976 68.5728 72.3953 67.4655 72.3953H56.9396C55.8323 72.3953 54.9346 71.4976 54.9346 70.3903V52.5436Z" fill="#BFBFBF"/>
<path d="M70.7882 31.725H56.2524V46.2197H70.7882V31.725Z" fill="#BFBFBF"/>
<path d="M39.9623 49.9128H34.4487V59.6242H39.9623V49.9128Z" fill="#C4C4C4"/>
<path d="M18.1579 55.3079H3.62207V60.195H18.1579V55.3079Z" fill="#9A9A9A"/>
<path d="M69.4704 55.3079H54.9346V60.195H69.4704V55.3079Z" fill="#9A9A9A"/>
<path d="M54.9315 63.818H18.1533V66.4495H54.9315V63.818Z" fill="#898989"/>
<path d="M56.2472 23.6395H18.1533V26.271H56.2472V23.6395Z" fill="#898989"/>
<path opacity="0.92" d="M54.9315 55.3079H18.1533V60.195H54.9315V55.3079Z" fill="#888888"/>
<path opacity="0.92" d="M56.2472 35.3047H18.1533V42.7704H56.2472V35.3047Z" fill="#898989"/>
<path d="M0.609375 46.2159H74.4183V55.3008C74.4183 56.4081 73.5206 57.3058 72.4133 57.3058H2.61432C1.50701 57.3058 0.609375 56.4081 0.609375 55.3008V46.2159Z" fill="#BFBFBF"/>
<path d="M44.3445 38.383H29.4327C27.7718 38.383 26.4253 39.7295 26.4253 41.3904V53.5763C26.4253 55.2372 27.7718 56.5837 29.4327 56.5837H44.3445C46.0054 56.5837 47.3519 55.2372 47.3519 53.5763V41.3904C47.3519 39.7295 46.0054 38.383 44.3445 38.383Z" fill="#D8D8D8"/>
<path d="M31.1012 38.383H29.4327C27.7718 38.383 26.4253 39.7294 26.4253 41.3904V53.5763C26.4253 55.2372 27.7718 56.5837 29.4327 56.5837H30.4367C30.9621 56.5837 31.3848 56.1518 31.3735 55.6265L31.1012 42.9729V38.383Z" fill="#EDEDED"/>
<path d="M44.3445 42.8631H29.4327C27.7718 42.8631 26.4253 44.2096 26.4253 45.8705V57.7964C26.4253 59.4573 27.7718 60.8038 29.4327 60.8038H44.3445C46.0054 60.8038 47.3519 59.4573 47.3519 57.7964V45.8705C47.3519 44.2096 46.0054 42.8631 44.3445 42.8631Z" fill="#BFBFBF"/>
<path d="M36.5434 53.2504C38.7234 53.2504 40.4907 51.6634 40.4907 49.7057C40.4907 47.748 38.7234 46.161 36.5434 46.161C34.3634 46.161 32.5962 47.748 32.5962 49.7057C32.5962 51.6634 34.3634 53.2504 36.5434 53.2504Z" fill="#8A8A8A"/>
<path d="M35.6471 51.6033C36.0165 50.8645 37.0709 50.8645 37.4403 51.6033L39.2366 55.1957C39.5699 55.8622 39.0853 56.6465 38.34 56.6465H34.7474C34.0022 56.6465 33.5175 55.8622 33.8508 55.1957L35.6471 51.6033Z" fill="#8A8A8A"/>
<path d="M56.2856 16.3848L70.7563 12.8931V20.8578L56.2856 24.3496V16.3848Z" fill="#EDEDED"/>
<path d="M26.4272 42.358H17.9849V46.161H26.4272V42.358Z" fill="#EDEDED"/>
</g>
</g>
<defs>
<clipPath id="clip0_5_694">
<rect width="75" height="78" fill="white"/>
</clipPath>
<clipPath id="clip1_5_694">
<rect width="80" height="90" fill="white" transform="translate(-2.5)"/>
</clipPath>
</defs>
</svg>
