<svg width="70" height="70" viewBox="0 0 100 100" fill="none" xmlns="http://www.w3.org/2000/svg">
<g clip-path="url(#clip0_5_694)">
<g clip-path="url(#clip1_5_694)">
<path d="M6.78906 39.7366C6.78906 34.2001 11.2772 29.7119 16.8137 29.7119H59.2559C64.7924 29.7119 69.2806 34.2001 69.2806 39.7366V66.3203C69.2806 68.5349 67.4853 70.3302 65.2707 70.3302H10.7989C8.58434 70.3302 6.78906 68.5349 6.78906 66.3203V39.7366Z" fill="#9A9A9A"/>
<path d="M4.62207 25.2274C4.62207 19.6909 9.11032 15.2027 14.6468 15.2027H61.7629C67.2994 15.2027 71.7877 19.6909 71.7877 25.2274V55.051H4.62207V25.2274Z" fill="#9A9A9A"/>
<path d="M75.4183 42.7716H1.60938V54.3H75.4183V42.7716Z" fill="#D8D8D8"/>
<path d="M65.521 25.477H73.4175C74.5248 25.477 75.4224 26.3746 75.4224 27.4819V45.777H65.521V25.477Z" fill="#D8D8D8"/>
<path d="M1.60938 27.4819C1.60938 26.3746 2.50701 25.477 3.61432 25.477H10.007C11.1143 25.477 12.012 26.3746 12.012 27.4819V43.7721C12.012 44.8794 11.1143 45.777 10.007 45.777H3.61432C2.50701 45.777 1.60938 44.8794 1.60938 43.7721V27.4819Z" fill="#D8D8D8"/>
<path d="M4.62207 14.0049C4.62207 12.8976 5.51971 12 6.62701 12H17.1529C18.2602 12 19.1579 12.8976 19.1579 14.0049V34.5027H4.62207V14.0049Z" fill="#D8D8D8"/>
<path d="M57.2524 14.0049C57.2524 12.8976 58.1501 12 59.2574 12H69.7833C70.8906 12 71.7883 12.8976 71.7883 14.0049V34.5027H57.2524V14.0049Z" fill="#D8D8D8"/>
<path d="M4.75391 24.1446L19.102 20.5723V33.2222L4.75391 33.0464V24.1446Z" fill="#EDEDED"/>
<path d="M4.62207 31.725H19.1579V46.2197H4.62207V31.725Z" fill="#BFBFBF"/>
<path d="M4.62207 52.5436C4.62207 51.4363 5.51971 50.5386 6.62701 50.5386H17.1529C18.2602 50.5386 19.1579 51.4363 19.1579 52.5436V70.3903C19.1579 71.4976 18.2602 72.3953 17.1529 72.3953H6.62701C5.51971 72.3953 4.62207 71.4976 4.62207 70.3903V52.5436Z" fill="#BFBFBF"/>
<path d="M55.9346 52.5436C55.9346 51.4363 56.8323 50.5386 57.9396 50.5386H68.4655C69.5728 50.5386 70.4705 51.4363 70.4705 52.5436V70.3903C70.4705 71.4976 69.5728 72.3953 68.4655 72.3953H57.9396C56.8323 72.3953 55.9346 71.4976 55.9346 70.3903V52.5436Z" fill="#BFBFBF"/>
<path d="M71.7882 31.725H57.2524V46.2197H71.7882V31.725Z" fill="#BFBFBF"/>
<path d="M40.9623 49.9128H35.4487V59.6242H40.9623V49.9128Z" fill="#C4C4C4"/>
<path d="M19.1579 55.3079H4.62207V60.195H19.1579V55.3079Z" fill="#9A9A9A"/>
<path d="M70.4704 55.3079H55.9346V60.195H70.4704V55.3079Z" fill="#9A9A9A"/>
<path d="M55.9315 63.818H19.1533V66.4495H55.9315V63.818Z" fill="#898989"/>
<path d="M57.2472 23.6395H19.1533V26.271H57.2472V23.6395Z" fill="#898989"/>
<path opacity="0.92" d="M55.9315 55.3079H19.1533V60.195H55.9315V55.3079Z" fill="#888888"/>
<path opacity="0.92" d="M57.2472 35.3047H19.1533V42.7704H57.2472V35.3047Z" fill="#898989"/>
<path d="M1.60938 46.2159H75.4183V55.3008C75.4183 56.4081 74.5206 57.3058 73.4133 57.3058H3.61432C2.50701 57.3058 1.60938 56.4081 1.60938 55.3008V46.2159Z" fill="#BFBFBF"/>
<path d="M45.3445 38.383H30.4327C28.7718 38.383 27.4253 39.7295 27.4253 41.3904V53.5763C27.4253 55.2372 28.7718 56.5837 30.4327 56.5837H45.3445C47.0054 56.5837 48.3519 55.2372 48.3519 53.5763V41.3904C48.3519 39.7295 47.0054 38.383 45.3445 38.383Z" fill="#D8D8D8"/>
<path d="M32.1012 38.383H30.4327C28.7718 38.383 27.4253 39.7294 27.4253 41.3904V53.5763C27.4253 55.2372 28.7718 56.5837 30.4327 56.5837H31.4367C31.9621 56.5837 32.3848 56.1518 32.3735 55.6265L32.1012 42.9729V38.383Z" fill="#EDEDED"/>
<path d="M45.3445 42.8631H30.4327C28.7718 42.8631 27.4253 44.2096 27.4253 45.8705V57.7964C27.4253 59.4573 28.7718 60.8038 30.4327 60.8038H45.3445C47.0054 60.8038 48.3519 59.4573 48.3519 57.7964V45.8705C48.3519 44.2096 47.0054 42.8631 45.3445 42.8631Z" fill="#BFBFBF"/>
<path d="M37.5434 53.2504C39.7234 53.2504 41.4907 51.6634 41.4907 49.7057C41.4907 47.748 39.7234 46.161 37.5434 46.161C35.3634 46.161 33.5962 47.748 33.5962 49.7057C33.5962 51.6634 35.3634 53.2504 37.5434 53.2504Z" fill="#8A8A8A"/>
<path d="M36.6471 51.6033C37.0165 50.8645 38.0709 50.8645 38.4403 51.6033L40.2366 55.1957C40.5699 55.8622 40.0853 56.6465 39.34 56.6465H35.7474C35.0022 56.6465 34.5175 55.8622 34.8508 55.1957L36.6471 51.6033Z" fill="#8A8A8A"/>
<path d="M57.2856 16.3848L71.7563 12.8931V20.8578L57.2856 24.3496V16.3848Z" fill="#EDEDED"/>
<path d="M27.4272 42.358H18.9849V46.161H27.4272V42.358Z" fill="#EDEDED"/>
</g>
</g>
<defs>
<clipPath id="clip0_5_694">
<rect width="77" height="78" fill="white"/>
</clipPath>
<clipPath id="clip1_5_694">
<rect width="80" height="90" fill="white" transform="translate(-1.5)"/>
</clipPath>
</defs>
</svg>
