<svg width="42" height="36" viewBox="0 0 42 36" fill="none" xmlns="http://www.w3.org/2000/svg">
<path d="M14.3838 22.2895L27.6162 14.235" stroke="white" stroke-width="4" stroke-linecap="round"/>
<path fill-rule="evenodd" clip-rule="evenodd" d="M21.3054 0.607211C23.5125 -0.653945 26.324 0.112831 27.5851 2.31985L36.7903 18.4289C38.0515 20.6359 37.2847 23.4475 35.0777 24.7086C32.8707 25.9698 30.0591 25.203 28.798 22.996L19.5928 6.8869C18.3316 4.67988 19.0984 1.86837 21.3054 0.607211ZM6.30293 9.83792C8.49586 8.55241 11.3157 9.28801 12.6012 11.4809L22.3817 28.1653C23.6672 30.3583 22.9316 33.1781 20.7387 34.4636C18.5458 35.7491 15.7259 35.0135 14.4404 32.8206L4.65991 16.1362C3.3744 13.9433 4.11001 11.1234 6.30293 9.83792Z" fill="#A568CC"/>
<path fill-rule="evenodd" clip-rule="evenodd" d="M30.8197 2.24405C32.7582 1.15361 35.2137 1.84115 36.3042 3.7797L41.4821 12.9849C42.5725 14.9234 41.885 17.3789 39.9464 18.4694C38.0079 19.5598 35.5524 18.8723 34.4619 16.9337L29.284 7.72853C28.1936 5.78997 28.8811 3.33449 30.8197 2.24405ZM1.986 17.2413C3.90312 16.1136 6.37143 16.7535 7.49915 18.6706L13.2524 28.4511C14.3801 30.3683 13.7402 32.8366 11.8231 33.9643C9.90594 35.092 7.43762 34.4521 6.30991 32.5349L0.55667 22.7544C-0.571044 20.8373 0.0688907 18.369 1.986 17.2413Z" fill="#A568CC"/>
<path d="M3.45227 20.1372L4.89058 22.4385M32.2185 4.60349L33.6568 6.90478M24.1639 4.60349L25.6022 6.90478M8.05486 13.8087L9.49317 16.11" stroke="#B786D6" stroke-width="3" stroke-linecap="round"/>
</svg>
