<svg width="31" height="29" viewBox="0 0 31 29" fill="none" xmlns="http://www.w3.org/2000/svg">
<path d="M12.758 1.76396C13.8215 -0.587989 17.1616 -0.587983 18.2251 1.76396L20.447 6.67772C20.8934 7.66491 21.8374 8.33472 22.9166 8.43005L28.2431 8.90054C30.9063 9.13578 31.9547 12.4742 29.9042 14.1898L26.0997 17.3728C25.2288 18.1015 24.8439 19.2595 25.1054 20.3646L26.2536 25.2164C26.8564 27.7637 24.136 29.8072 21.8575 28.5187L16.9683 25.7538C16.052 25.2356 14.9311 25.2356 14.0148 25.7538L9.12563 28.5187C6.84713 29.8072 4.12671 27.7637 4.72951 25.2165L5.87771 20.3646C6.13923 19.2595 5.75437 18.1015 4.88341 17.3728L1.07898 14.1898C-0.971568 12.4742 0.0768652 9.13578 2.74008 8.90054L8.06659 8.43005C9.1458 8.33472 10.0898 7.66491 10.5362 6.67772L12.758 1.76396Z" fill="#AA572A"/>
</svg>
