<svg width="66" height="43" viewBox="0 0 66 43" fill="none" xmlns="http://www.w3.org/2000/svg">
<g clip-path="url(#clip0_26_32)">
<path d="M36.364 26.01C33.5499 24.771 33.5499 21.4171 36.364 20.1781L59.6106 9.94249C62.2517 8.77964 65.431 10.3725 65.431 12.8584V33.3296C65.431 35.8155 62.2517 37.4083 59.6106 36.2456L36.364 26.01Z" fill="#AFAFAF"/>
<path d="M37.6724 4.94873H9.91379C4.43856 4.94873 0 8.64142 0 13.1966V34.641C0 39.1962 4.43856 42.8889 9.91379 42.8889H37.6724C43.1477 42.8889 47.5862 39.1962 47.5862 34.641V13.1966C47.5862 8.64142 43.1477 4.94873 37.6724 4.94873Z" fill="#AFAFAF"/>
<path d="M36.364 21.0613C33.5499 19.8223 33.5499 16.4684 36.364 15.2294L59.6106 4.99379C62.2517 3.83094 65.431 5.42379 65.431 7.90974V28.3809C65.431 30.8668 62.2517 32.4596 59.6106 31.2969L36.364 21.0613Z" fill="#D9D9D9"/>
<mask id="mask0_26_32" style="mask-type:alpha" maskUnits="userSpaceOnUse" x="34" y="4" width="32" height="28">
<path d="M36.364 21.0613C33.5499 19.8223 33.5499 16.4684 36.364 15.2294L59.6106 4.99379C62.2517 3.83094 65.431 5.42379 65.431 7.90974V28.3809C65.431 30.8668 62.2517 32.4596 59.6106 31.2969L36.364 21.0613Z" fill="white"/>
</mask>
<g mask="url(#mask0_26_32)">
<path d="M53.5345 4.94873H41.6379V31.3419H53.5345V4.94873Z" fill="#B7B7B7"/>
</g>
<path d="M37.6724 0H9.91379C4.43856 0 0 3.69269 0 8.24786V29.6923C0 34.2475 4.43856 37.9402 9.91379 37.9402H37.6724C43.1477 37.9402 47.5862 34.2475 47.5862 29.6923V8.24786C47.5862 3.69269 43.1477 0 37.6724 0Z" fill="#D9D9D9"/>
</g>
<defs>
<clipPath id="clip0_26_32">
<rect width="65.431" height="42.8889" fill="white"/>
</clipPath>
</defs>
</svg>
