<svg width="65" height="53" viewBox="0 0 65 53" fill="none" xmlns="http://www.w3.org/2000/svg">
<path d="M22.2607 32.8151L42.7394 20.9571"   stroke-linecap="round"/>
<path fill-rule="evenodd" clip-rule="evenodd" d="M32.9726 0.893949C36.3884 -0.962752 40.7395 0.166112 42.6912 3.41533L56.9374 27.1314C58.8892 30.3806 57.7025 34.5199 54.2869 36.3765C50.8713 38.2333 46.52 37.1044 44.5683 33.8552L30.3222 10.139C28.3703 6.88982 29.557 2.75066 32.9726 0.893949ZM9.75453 14.4836C13.1484 12.591 17.5124 13.674 19.5019 16.9024L34.6383 41.4656C36.6278 44.6942 35.4894 48.8455 32.0956 50.7381C28.7018 52.6306 24.3377 51.5477 22.3482 48.3192L7.21176 23.7561C5.22228 20.5276 6.36072 16.3761 9.75453 14.4836Z" stroke="none"/>
<path fill-rule="evenodd" clip-rule="evenodd" d="M47.6972 3.76249C50.6972 2.15712 54.4974 3.16933 56.1851 6.0233L64.1985 19.5754C65.886 22.4293 64.822 26.0443 61.8218 27.6498C58.8217 29.2551 55.0216 28.243 53.3339 25.3889L45.3205 11.8369C43.633 8.98287 44.6969 5.36786 47.6972 3.76249ZM3.07357 25.8418C6.04054 24.1815 9.86055 25.1236 11.6058 27.946L20.5097 42.3451C22.2549 45.1675 21.2646 48.8015 18.2977 50.4617C15.3306 52.122 11.5106 51.1799 9.76534 48.3573L0.861513 33.9583C-0.883758 31.1359 0.106617 27.502 3.07357 25.8418Z" stroke="none"/>
</svg>
