<svg width="100" height="85" viewBox="0 0 100 85" fill="none" xmlns="http://www.w3.org/2000/svg">
<path d="M76.0715 36.4893H23.9287C10.7133 36.4893 0 47.2017 0 60.418C0 73.6326 10.7133 84.3465 23.9287 84.3465C32.2578 84.3465 39.5912 80.0863 43.8756 73.6326H56.1238C60.409 80.0863 67.7432 84.3465 76.0715 84.3465C89.2877 84.3465 100 73.6326 100 60.418C100 47.2017 89.2877 36.4893 76.0715 36.4893ZM34.4053 63.2771H27.0236V70.6557H20.5947V63.2771H13.2146V56.8459H20.5947V49.4658H27.0236V56.8459H34.4053V63.2771ZM70.0186 63.2228C68.4699 64.7715 65.9594 64.7715 64.41 63.2228C62.86 61.6742 62.86 59.1615 64.41 57.6129C65.9594 56.0642 68.4699 56.0643 70.0186 57.6113C71.5672 59.1615 71.5672 61.6744 70.0186 63.2228ZM78.875 72.0809C77.3279 73.6279 74.8166 73.6279 73.2666 72.0793C71.7164 70.5307 71.7164 68.0195 73.2666 66.4709C74.8166 64.9223 77.3279 64.9191 78.875 66.4678C80.4252 68.0195 80.4252 70.5307 78.875 72.0809ZM78.875 54.365C77.3279 55.9137 74.8166 55.9137 73.2666 54.365C71.7193 52.8164 71.7164 50.3037 73.2666 48.7551C74.8166 47.2064 77.3279 47.2064 78.875 48.7551C80.4252 50.3035 80.4252 52.8164 78.875 54.365ZM87.733 63.2228C86.1859 64.7715 83.6732 64.7715 82.1228 63.2228C80.5727 61.6742 80.5727 59.1615 82.1228 57.6129C83.673 56.0642 86.1857 56.0642 87.733 57.6129C89.2816 59.1615 89.2816 61.6744 87.733 63.2228Z" stroke="none"/>
<path d="M52.525 13.8322C52.525 13.3518 52.6207 12.9104 52.7908 12.5037C53.0485 11.8951 53.4838 11.3709 54.0285 11.0018C54.5754 10.6326 55.218 10.4217 55.9334 10.4217C56.4102 10.4217 56.8531 10.5182 57.26 10.6898C57.8678 10.9459 58.3936 11.3799 58.7619 11.9268C59.1295 12.4736 59.342 13.1154 59.342 13.8322C59.342 14.9832 59.5778 16.0965 60.0041 17.1043C60.6451 18.6168 61.708 19.8959 63.0487 20.8012C64.3864 21.7082 66.0186 22.2414 67.751 22.2398C68.9057 22.2398 70.019 22.0033 71.0252 21.577C72.5346 20.9367 73.8153 19.8746 74.7205 18.534C75.6276 17.1947 76.1594 15.5633 76.1594 13.8322V0H71.1578V13.8322C71.1578 14.3084 71.0645 14.7512 70.8926 15.1564C70.635 15.7666 70.1981 16.2908 69.6557 16.6584C69.1074 17.0258 68.4657 17.2383 67.7508 17.2383C67.2748 17.2383 66.8319 17.1434 66.4258 16.9717C65.8164 16.7156 65.2922 16.2787 64.9239 15.7348C64.5555 15.1879 64.3438 14.5434 64.3407 13.832C64.3438 12.675 64.1078 11.5633 63.6809 10.557C63.0399 9.04453 61.9778 7.76562 60.6369 6.86016C59.2963 5.95176 57.6664 5.41992 55.933 5.42148C54.7791 5.41992 53.6666 5.65644 52.6588 6.08437C51.1471 6.72168 49.8674 7.78672 48.9612 9.12734C48.0551 10.4666 47.524 12.098 47.524 13.832V34.2836H52.5246V13.8322H52.525Z" stroke="none"/>
</svg>
