<svg width="100" height="100" viewBox="0 0 100 100" stroke="none" fill="none" xmlns="http://www.w3.org/2000/svg">
<g clip-path="url(#clip0_34_75)">
<path d="M35.5953 66.7547C34.8742 61.9106 30.3668 58.5692 25.5246 59.2883C20.6822 60.0016 17.3352 64.5129 18.0539 69.3572L18.5486 72.6904C16.6199 73.1397 15.3197 74.9856 15.6152 76.9793L17.0984 86.985C17.394 88.9768 19.1729 90.3656 21.1488 90.2375L21.4758 92.4342C22.193 97.2785 26.6984 100.622 31.5445 99.9028C36.3869 99.1856 39.7303 94.6801 39.015 89.834L35.5953 66.7547Z" stroke="none"/>
<path d="M81.4518 72.6904L81.9463 69.3572C82.6654 64.5129 79.3184 60.0015 74.476 59.2883C69.6336 58.5693 65.126 61.9105 64.4051 66.7547L60.9852 89.8338C60.2699 94.6799 63.6131 99.1853 68.4555 99.9025C73.302 100.621 77.8074 97.2783 78.5242 92.434L78.8512 90.2373C80.8272 90.3654 82.6063 88.9763 82.9018 86.9847L84.385 76.9791C84.6807 74.9855 83.3805 73.1396 81.4518 72.6904Z" stroke="none"/>
<path d="M85.2934 14.7517C76.5483 5.42362 64.1174 -0.0177911 50 -1.76297e-05C35.8828 -0.0177911 23.4518 5.42362 14.707 14.7517C5.94611 24.0681 0.892984 37.1609 0.900796 52.1726C0.900796 53.8531 0.963882 55.5592 1.09181 57.2869C2.11642 71.2131 4.59064 82.2806 5.63068 86.9498L13.5069 85.1963C12.4824 80.5982 10.1225 70.0113 9.13732 56.6918C9.02521 55.1594 8.96994 53.6521 8.96994 52.1726C8.97775 38.9459 13.3631 27.9707 20.5873 20.2777C27.8291 12.5945 37.9277 8.08709 50 8.06932C62.0705 8.08709 72.1707 12.5947 79.4127 20.2777C86.6367 27.9705 91.0221 38.9457 91.0299 52.1726C91.0299 53.6521 90.9748 55.1594 90.8625 56.6937C89.8778 70.0113 87.5174 80.5982 86.493 85.1963L94.3692 86.9498C95.4094 82.2806 97.8838 71.2131 98.9082 57.2869C99.0363 55.557 99.0992 53.8529 99.0992 52.1726C99.1072 37.1607 94.0541 24.068 85.2934 14.7517Z" stroke="none" />
</g>
<defs>
<clipPath id="clip0_34_75">
<rect width="100" height="100" stroke="none" />
</clipPath>
</defs>
</svg>
