<svg width="63" height="100" viewBox="0 0 63 100" fill="none" xmlns="http://www.w3.org/2000/svg">
<path d="M55.5561 39.2076V48.8898C55.5537 55.5703 52.8471 61.6018 48.4572 65.9984C44.0602 70.3887 38.0307 73.0951 31.3506 73.0951C24.6701 73.0951 18.6385 70.3887 14.2416 65.9984C9.85176 61.6018 7.14531 55.5701 7.14297 48.8898V39.2076H0V48.8898C0.00683594 64.9777 12.1631 78.2387 27.7793 80.0195V93.6498H18.6506V100H44.0463V93.6498H34.9223V80.0195C50.5359 78.2385 62.6922 64.9777 62.6992 48.8898V39.2076H55.5561Z" stroke="none"/>
<path d="M31.3508 65.2406C40.3654 65.2406 47.6992 57.9045 47.6992 48.8898V16.3508C47.6992 7.33613 40.3654 0 31.3508 0C22.336 0 14.9998 7.33613 14.9998 16.3508V48.8897C14.9998 57.9045 22.336 65.2406 31.3508 65.2406Z" stroke="none"/>
</svg>
