<svg width="92" height="85" viewBox="0 0 92 85" fill="none" xmlns="http://www.w3.org/2000/svg">
<path d="M35.0871 19.1547C39.9426 11.1071 42.3702 7.08334 46 7.08334C49.6298 7.08334 52.0574 11.1071 56.9127 19.1547L58.1689 21.2367C59.5489 23.5235 60.2385 24.667 61.3145 25.4214C62.3902 26.1759 63.7296 26.4559 66.4091 27.016L68.8486 27.5259C78.2771 29.497 82.9917 30.4825 84.1133 33.8149C85.2349 37.1471 82.0211 40.6197 75.593 47.5642L73.9301 49.3609C72.1035 51.3343 71.19 52.321 70.779 53.5419C70.3685 54.7627 70.5065 56.0791 70.7825 58.7123L71.034 61.1093C72.0057 70.375 72.4918 75.0079 69.5554 77.0674C66.6187 79.1269 62.2047 77.2491 53.3765 73.4938L51.0926 72.522C48.584 71.4549 47.3298 70.9212 46 70.9212C44.6702 70.9212 43.4159 71.4549 40.9074 72.522L38.6235 73.4938C29.7953 77.2491 25.3812 79.1269 22.4447 77.0674C19.5083 75.0079 19.9942 70.375 20.966 61.1093L21.2174 58.7123C21.4936 56.0791 21.6317 54.7627 21.2208 53.5419C20.8099 52.321 19.8966 51.3343 18.07 49.3609L16.407 47.5642C9.97912 40.6197 6.76514 37.1471 7.88677 33.8149C9.00841 30.4825 13.7228 29.497 23.1516 27.5259L25.5909 27.016C28.2703 26.4559 29.6099 26.1759 30.6856 25.4214C31.7613 24.667 32.4512 23.5235 33.831 21.2367L35.0871 19.1547Z" stroke="none" stroke-width="6.25"/>
</svg>
