<svg width="120" height="120" viewBox="0 0 120 120" fill="none" xmlns="http://www.w3.org/2000/svg">
<path d="M59.9997 26.25C62.5956 26.25 65.1332 25.4802 67.2916 24.038C69.45 22.5959 71.1322 20.546 72.1256 18.1477C73.119 15.7494 73.379 13.1104 72.8725 10.5644C72.3661 8.01845 71.1161 5.67979 69.2805 3.84423C67.4449 2.00867 65.1063 0.75863 62.5603 0.252199C60.0143 -0.254232 57.3753 0.00568694 54.977 0.999087C52.5787 1.99249 50.5289 3.67475 49.0867 5.83315C47.6445 7.99154 46.8747 10.5291 46.8747 13.125C46.8747 16.606 48.2575 19.9444 50.7189 22.4058C53.1804 24.8672 56.5188 26.25 59.9997 26.25ZM101.25 105H18.7497C17.7551 105 16.8013 105.395 16.0981 106.098C15.3948 106.802 14.9997 107.755 14.9997 108.75V116.25C14.9997 117.245 15.3948 118.198 16.0981 118.902C16.8013 119.605 17.7551 120 18.7497 120H101.25C102.244 120 103.198 119.605 103.901 118.902C104.605 118.198 105 117.245 105 116.25V108.75C105 107.755 104.605 106.802 103.901 106.098C103.198 105.395 102.244 105 101.25 105ZM118.329 43.1625L111.647 39.4313C109.903 38.2594 107.683 38.8547 106.422 40.5281C105.166 42.2097 103.461 43.5027 101.503 44.2585C99.5447 45.0143 97.413 45.2023 95.3528 44.8008C89.9294 43.7953 86.2497 38.6555 86.2497 33.1406C86.2497 32.3077 85.9188 31.5089 85.3299 30.9199C84.7409 30.3309 83.942 30 83.1091 30H74.0224C72.6161 30 71.3013 30.9375 71.0083 32.3227C70.4765 34.8484 69.0923 37.1145 67.0879 38.7408C65.0835 40.367 62.5809 41.2546 59.9997 41.2546C57.4186 41.2546 54.9159 40.367 52.9115 38.7408C50.9072 37.1145 49.523 34.8484 48.9911 32.3227C48.6982 30.9352 47.3927 30 45.9771 30H36.8903C36.0574 30 35.2586 30.3309 34.6696 30.9199C34.0806 31.5089 33.7497 32.3077 33.7497 33.1406C33.7497 39.1617 29.2966 44.5664 23.2802 44.9742C21.4108 45.106 19.5383 44.7638 17.8364 43.9792C16.1344 43.1946 14.6581 41.9931 13.5442 40.4859C12.3067 38.8242 10.0919 38.2711 8.3669 39.4219L1.6708 43.1719C0.910025 43.6787 0.360595 44.446 0.125802 45.3295C-0.108991 46.213 -0.0129735 47.1519 0.395803 47.9695L24.431 97.5H95.5685L119.604 47.9602C120.012 47.1425 120.108 46.2037 119.874 45.3202C119.639 44.4367 119.089 43.6694 118.329 43.1625Z" fill="white"/>
</svg>
