<svg width="120" height="80" viewBox="0 0 120 80" fill="none" xmlns="http://www.w3.org/2000/svg">
<path d="M74.7567 6.37486C75.5152 3.71971 73.9782 0.952259 71.3227 0.193659C68.6677 -0.564941 65.9002 0.972509 65.1417 3.62766L45.1415 73.6277C44.3829 76.2827 45.9204 79.0502 48.5756 79.8087C51.2307 80.5677 53.9982 79.0302 54.7567 76.3747L74.7567 6.37486Z" fill="white"/>
<path d="M28.9447 16.9952C30.6049 19.2018 30.1619 22.3365 27.9553 23.9967L11.9939 36.0057C9.33539 38.0062 9.33534 41.9962 11.9939 43.9967L27.9553 56.0057C30.1619 57.6662 30.6049 60.8007 28.9447 63.0072C27.2844 65.2142 24.1498 65.6567 21.9431 63.9967L5.98174 51.9877C-1.99389 45.9867 -1.99392 34.0157 5.98169 28.015L21.9431 16.0059C24.1498 14.3457 27.2844 14.7886 28.9447 16.9952Z" fill="white"/>
<path d="M90.9537 63.0072C89.2937 60.8007 89.7367 57.6662 91.9432 56.0057L107.905 43.9967C110.563 41.9962 110.563 38.0062 107.905 36.0057L91.9432 23.9967C89.7367 22.3365 89.2937 19.2018 90.9537 16.9952C92.6142 14.7886 95.7487 14.3457 97.9552 16.0059L113.917 28.015C121.892 34.0157 121.892 45.9867 113.917 51.9877L97.9552 63.9967C95.7487 65.6567 92.6142 65.2142 90.9537 63.0072Z" fill="white"/>
</svg>
