<svg width="130" height="130" viewBox="0 0 130 130" fill="none" xmlns="http://www.w3.org/2000/svg">
<path d="M13 0C5.81676 0 0 5.80891 0 12.9944V90.9437C0 98.1292 5.81676 103.938 13 103.938H45.3483L61.3952 127.992C62.1989 129.197 63.5516 129.921 65 129.921C66.4484 129.921 67.8011 129.197 68.6048 127.992L84.6517 103.938H117C124.183 103.938 130 98.1292 130 90.9437V12.9944C130 5.80891 124.183 0 117 0H13Z" fill="#6B77A1"/>
<path d="M35.0833 41.1727C35.0833 56.1667 47.3091 64.1568 56.2586 71.3086C59.4167 73.8323 62.4583 76.2083 65.5 76.2083C68.5417 76.2083 71.5833 73.8323 74.7415 71.3086C83.691 64.1568 95.9167 56.1667 95.9167 41.1727C95.9167 26.1787 79.1869 15.5452 65.5 29.9603C51.813 15.5452 35.0833 26.1787 35.0833 41.1727Z" fill="white"/>
</svg>
