<svg width="40" height="40" viewBox="0 0 40 40" fill="none" xmlns="http://www.w3.org/2000/svg">
<path d="M14.7499 23.2501L26.2499 16.2501" stroke="#C9C7C7" stroke-width="3" stroke-linecap="round"/>
<path fill-rule="evenodd" clip-rule="evenodd" d="M20.7655 5.27704C22.6835 4.181 25.127 4.84739 26.223 6.76546L34.223 20.7655C35.319 22.6835 34.6527 25.1269 32.7346 26.223C30.8165 27.319 28.3731 26.6526 27.2771 24.7346L19.2771 10.7346C18.181 8.8165 18.8474 6.37308 20.7655 5.27704ZM7.72715 13.2992C9.63297 12.182 12.0836 12.8213 13.2008 14.7271L21.7008 29.2271C22.818 31.133 22.1787 33.5836 20.2729 34.7008C18.3671 35.818 15.9164 35.1787 14.7992 33.2729L6.29924 18.7729C5.18204 16.8671 5.82133 14.4164 7.72715 13.2992Z" fill="#1CB0F6"/>
<path fill-rule="evenodd" clip-rule="evenodd" d="M29.034 6.69956C30.7188 5.75188 32.8528 6.3494 33.8005 8.03416L38.3005 16.0342C39.2481 17.7189 38.6506 19.8529 36.9659 20.8006C35.2811 21.7483 33.1471 21.1507 32.1994 19.466L27.6994 11.466C26.7518 9.78123 27.3493 7.64723 29.034 6.69956ZM3.97538 19.7333C5.64149 18.7532 7.78665 19.3094 8.76672 20.9755L13.7667 29.4755C14.7468 31.1416 14.1906 33.2868 12.5245 34.2668C10.8584 35.2469 8.71325 34.6908 7.73318 33.0246L2.73318 24.5246C1.75311 22.8585 2.30926 20.7134 3.97538 19.7333Z" fill="#1CB0F6"/>
<path d="M5.24988 22.2501L6.49988 24.2501M30.2499 8.75006L31.4999 10.7501M23.2499 8.75006L24.4999 10.7501M9.24988 16.7501L10.4999 18.7501" stroke="#63C9F9" stroke-width="3" stroke-linecap="round"/>
</svg>
