<svg width="66" height="81" viewBox="0 0 66 81" fill="none" xmlns="http://www.w3.org/2000/svg">
<path d="M0 69.832C0 71.3227 0.522 72.6127 1.566 73.702C2.61 74.7913 3.915 75.3073 5.481 75.25H59.856C61.306 75.25 62.582 74.734 63.684 73.702C64.786 72.67 65.308 71.38 65.25 69.832C65.25 67.252 64.641 64.6433 63.423 62.006C62.205 59.3687 60.61 57.018 58.638 54.954C56.666 52.89 54.404 50.9693 51.852 49.192C49.3 47.4147 46.69 46.0673 44.022 45.15C47.212 43.2007 49.735 40.592 51.591 37.324C53.447 34.056 54.375 30.5587 54.375 26.832V21.5C54.375 15.5373 52.258 10.4633 48.024 6.278C43.79 2.09267 38.657 0 32.625 0C26.593 0 21.46 2.09267 17.226 6.278C12.992 10.4633 10.875 15.5373 10.875 21.5V26.832C10.875 30.616 11.803 34.1133 13.659 37.324C15.515 40.5347 18.038 43.1433 21.228 45.15C18.502 46.1247 15.892 47.472 13.398 49.192C10.904 50.912 8.642 52.8327 6.612 54.954C4.582 57.0753 2.987 59.426 1.827 62.006C0.667 64.586 0.058 67.1947 0 69.832Z" stroke="none" fill="#7272a3"/>
<path d="M59.16 67.682C62.7636 67.682 65.685 70.5698 65.685 74.132C65.685 77.6942 62.7636 80.582 59.16 80.582C55.5564 80.582 52.635 77.6942 52.635 74.132C52.635 70.5698 55.5564 67.682 59.16 67.682Z" fill="#F10C0C" stroke="#FFFFFF" stroke-width="2"/>
</svg>
