<svg width="56" height="36" viewBox="0 0 56 36" fill="none" xmlns="http://www.w3.org/2000/svg">
<path d="M41.9495 0H6.59062C4.74265 0.10835 3.01316 0.935953 1.78011 2.30195C0.54706 3.66795 -0.0892929 5.46126 0.0101168 7.29V28.71C-0.0892929 30.5387 0.54706 32.3321 1.78011 33.6981C3.01316 35.064 4.74265 35.8916 6.59062 36H41.9495C43.7974 35.8916 45.5269 35.064 46.76 33.6981C47.993 32.3321 48.6294 30.5387 48.53 28.71V7.29C48.6294 5.46126 47.993 3.66795 46.76 2.30195C45.5269 0.935953 43.7974 0.10835 41.9495 0Z" fill="#A993C5"/>
<path d="M53.2516 9.31926C52.5227 9.31926 51.8236 9.6281 51.3082 10.1778C50.7928 10.7276 50.5032 11.4732 50.5032 12.2506V23.9761C50.5032 24.7535 50.7928 25.4991 51.3082 26.0489C51.8236 26.5986 52.5227 26.9074 53.2516 26.9074C53.9805 26.9074 54.6796 26.5986 55.195 26.0489C55.7104 25.4991 56 24.7535 56 23.9761V12.2506C56 11.4732 55.7104 10.7276 55.195 10.1778C54.6796 9.6281 53.9805 9.31926 53.2516 9.31926Z" fill="#A993C5"/>
<path d="M31.3461 17.0149L21.9048 27.5493C21.8046 27.661 21.6723 27.7357 21.5277 27.762C21.3832 27.7882 21.2344 27.7647 21.1038 27.6949C20.9733 27.6252 20.8682 27.513 20.8044 27.3754C20.7406 27.2378 20.7217 27.0823 20.7504 26.9324L21.9868 20.4951L17.1286 18.5979C17.0248 18.5574 16.9322 18.4908 16.859 18.4041C16.7858 18.3174 16.7342 18.2132 16.7089 18.1008C16.6835 17.9884 16.6852 17.8713 16.7137 17.7597C16.7423 17.6481 16.7968 17.5456 16.8724 17.4612L26.3138 6.92679C26.4139 6.81509 26.5463 6.74044 26.6908 6.71416C26.8353 6.68788 26.9842 6.71141 27.1147 6.78117C27.2452 6.85093 27.3504 6.96313 27.4141 7.10074C27.4779 7.23835 27.4969 7.39386 27.4681 7.5437L26.2318 13.981L31.0899 15.8782C31.1937 15.9187 31.2863 15.9853 31.3595 16.072C31.4328 16.1587 31.4843 16.2629 31.5097 16.3753C31.535 16.4877 31.5333 16.6049 31.5048 16.7164C31.4763 16.828 31.4218 16.9305 31.3461 17.0149Z" fill="white"/>
</svg>
