<svg width="32" height="34" viewBox="0 0 32 34" fill="none" xmlns="http://www.w3.org/2000/svg">
<path d="M12.5 20.0451V10.5451C12.5 8.5451 14 8.54507 15 9.04507L17 10.0451C17.8333 8.87841 19.7 6.34508 20.5 5.54508C21.5 4.54508 22.5 5.04508 23.5 6.04508C24.5 7.04508 27.5 11.0451 29 13.0451C30.5 15.0451 31 17.0451 31 20.0451C31 23.0451 27.5 28.0451 21.5 28.0451C15.5 28.0451 12.5 22.5451 12.5 20.0451Z" fill="#FF9600"/>
<path d="M18.5 18.5451C19.3 17.3451 20.5 15.7118 21 15.0451C21.1666 14.7118 21.7 14.2451 22.5 15.0451C23.5 16.0451 24.5 18.0451 25 18.5451C25.5 19.0451 26 21.0451 25 22.5451C24 24.0451 22.5 24.5451 21.5 24.5451C20.5 24.5451 19 23.5451 18.5 22.5451C18 21.5451 17.5 20.0451 18.5 18.5451Z" fill="#FFC800"/>
</svg>
