<svg width="100" height="73" viewBox="0 0 100 73" fill="none" xmlns="http://www.w3.org/2000/svg">
<path d="M0 61.1111C0 64.058 1.17063 66.8841 3.25437 68.9679C5.33811 71.0516 8.16426 72.2222 11.1111 72.2222H88.8889C91.8357 72.2222 94.6619 71.0516 96.7456 68.9679C98.8294 66.8841 100 64.058 100 61.1111V50H0V61.1111Z" fill="#FFCD05"/>
<path d="M0 25H100V50H0V25Z" fill="#F5383B"/>
<path d="M88.8889 0H11.1111C8.16426 0 5.33811 1.17063 3.25437 3.25437C1.17063 5.33811 0 8.16426 0 11.1111L0 25H100V11.1111C100 8.16426 98.8294 5.33811 96.7456 3.25437C94.6619 1.17063 91.8357 0 88.8889 0Z" fill="#2C2B2B"/>
</svg>
