<svg width="32" height="32" viewBox="0 0 32 32" fill="none" xmlns="http://www.w3.org/2000/svg">
<path d="M14 20.4119V11.1439C14 10.4352 14.3751 9.77936 14.986 9.42002L21.486 5.59649C22.1119 5.22832 22.8881 5.22832 23.514 5.59649L30.014 9.42002C30.6249 9.77936 31 10.4352 31 11.1439V20.4119C31 21.0904 30.6561 21.7225 30.0865 22.0911L23.5865 26.297C22.9253 26.7248 22.0747 26.7248 21.4135 26.297L14.9135 22.0911C14.3439 21.7225 14 21.0904 14 20.4119Z" fill="#1CB0F6"/>
<path d="M20.9335 7.57699L16.1548 10.8623C15.4745 11.33 15.6219 12.374 16.4051 12.635L18.5758 13.3586C18.8457 13.4486 19.1412 13.4193 19.3882 13.2782L21.9961 11.7879C22.3077 11.6099 22.5 11.2785 22.5 10.9197V8.40103C22.5 7.59585 21.597 7.12083 20.9335 7.57699Z" fill="#DDF4FF"/>
</svg>
